<svg width="20" height="20" viewBox="0 0 20 20" fill="none" xmlns="http://www.w3.org/2000/svg">
<path fill-rule="evenodd" clip-rule="evenodd" d="M9.14944 2.76614C9.62904 2.32079 10.371 2.32079 10.8506 2.76614L17.1908 8.65349C17.5474 8.98461 17.75 9.44926 17.75 9.93588V15.9998C17.75 16.9663 16.9665 17.7498 16 17.7498H4C3.0335 17.7498 2.25 16.9663 2.25 15.9998V9.93588C2.25 9.44926 2.45262 8.98461 2.80921 8.65349L9.14944 2.76614ZM10 4.02329L3.82989 9.75268C3.77895 9.79998 3.75 9.86636 3.75 9.93588V15.9998C3.75 16.1379 3.86193 16.2498 4 16.2498H16C16.1381 16.2498 16.25 16.1379 16.25 15.9998V9.93588C16.25 9.86636 16.2211 9.79998 16.1701 9.75268L10 4.02329Z" fill="currenColor"/>
</svg>
